<svg width="960" height="540" xmlns="http://www.w3.org/2000/svg" version="1.1">

 <g>
  <title>Layer 1</title>
  <rect id="svg_1" fill="#1A202C" viewBox="0 0 960 540" />
  <g id="svg_2">
   <g id="svg_3">
    <path id="svg_4" fill="#322659" d="m476,171.2l11.9,20.7l-23.8,0l11.9,-20.7z"/>
   </g>
   <g id="svg_5">
    <path id="svg_6" fill="#322659" d="m896,191l8.7,15l-17.4,0l8.7,-15z"/>
   </g>
   <g id="svg_7">
    <path id="svg_8" fill="#322659" d="m56,270l10.4,18l-20.8,0l10.4,-18z"/>
   </g>
   <g id="svg_9">
    <path id="svg_10" fill="#322659" d="m8,404l10.4,18l-20.8,0l10.4,-18z"/>
   </g>
   <g id="svg_11">
    <path id="svg_12" fill="#322659" d="m535,100l1.7,3l-3.4,0l1.7,-3z"/>
   </g>
   <g id="svg_13">
    <path id="svg_14" fill="#322659" d="m903,49l1.7,3l-3.4,0l1.7,-3z"/>
   </g>
   <g id="svg_15">
    <path id="svg_16" fill="#322659" d="m106,414l9.5,16.5l-19,0l9.5,-16.5z"/>
   </g>
   <g id="svg_17">
    <path id="svg_18" fill="#322659" d="m73,375l7.8,13.5l-15.6,0l7.8,-13.5z"/>
   </g>
   <g id="svg_19">
    <path id="svg_20" fill="#322659" d="m196,31l9.5,16.5l-19,0l9.5,-16.5z"/>
   </g>
   <g id="svg_21">
    <path id="svg_22" fill="#322659" d="m626,303l2.6,4.5l-5.2,0l2.6,-4.5z"/>
   </g>
   <g id="svg_23">
    <path id="svg_24" fill="#322659" d="m417,312l8.7,15l-17.4,0l8.7,-15z"/>
   </g>
   <g id="svg_25">
    <path id="svg_26" fill="#322659" d="m645,383l6.9,12l-13.8,0l6.9,-12z"/>
   </g>
   <g id="svg_27">
    <path id="svg_28" fill="#322659" d="m334,486l4.3,7.5l-8.6,0l4.3,-7.5z"/>
   </g>
   <g id="svg_29">
    <path id="svg_30" fill="#322659" d="m375,480l8.7,15l-17.4,0l8.7,-15z"/>
   </g>
   <g id="svg_31">
    <path id="svg_32" fill="#322659" d="m15,506l5.2,9l-10.4,0l5.2,-9z"/>
   </g>
   <g id="svg_33">
    <path id="svg_34" fill="#322659" d="m564,104l0.9,1.5l-1.8,0l0.9,-1.5z"/>
   </g>
   <g id="svg_35">
    <path id="svg_36" fill="#322659" d="m758,64l4.3,7.5l-8.6,0l4.3,-7.5z"/>
   </g>
   <g id="svg_37">
    <path id="svg_38" fill="#322659" d="m771,496l6.9,12l-13.8,0l6.9,-12z"/>
   </g>
   <g id="svg_39">
    <path id="svg_40" fill="#322659" d="m781,373l2.6,4.5l-5.2,0l2.6,-4.5z"/>
   </g>
   <g id="svg_41">
    <path id="svg_42" fill="#322659" d="m588,307l5.2,9l-10.4,0l5.2,-9z"/>
   </g>
   <g id="svg_43">
    <path id="svg_44" fill="#322659" d="m165,26l7.8,13.5l-15.6,0l7.8,-13.5z"/>
   </g>
   <g id="svg_45">
    <path id="svg_46" fill="#322659" d="m255,467l7.8,13.5l-15.6,0l7.8,-13.5z"/>
   </g>
   <g id="svg_47">
    <path id="svg_48" fill="#322659" d="m590,135l7.8,13.5l-15.6,0l7.8,-13.5z"/>
   </g>
   <g id="svg_49">
    <path id="svg_50" fill="#322659" d="m905,304l5.2,9l-10.4,0l5.2,-9z"/>
   </g>
   <g id="svg_51">
    <path id="svg_52" fill="#322659" d="m567,486l1.7,3l-3.4,0l1.7,-3z"/>
   </g>
   <g id="svg_53">
    <path id="svg_54" fill="#322659" d="m102,372l7.8,13.5l-15.6,0l7.8,-13.5z"/>
   </g>
   <g id="svg_55">
    <path id="svg_56" fill="#322659" d="m21,177l5.2,9l-10.4,0l5.2,-9z"/>
   </g>
   <g id="svg_57">
    <path id="svg_58" fill="#322659" d="m577,229l4.3,7.5l-8.6,0l4.3,-7.5z"/>
   </g>
   <g id="svg_59">
    <path id="svg_60" fill="#322659" d="m286,90l6.9,12l-13.8,0l6.9,-12z"/>
   </g>
   <g id="svg_61">
    <path id="svg_62" fill="#322659" d="m925,477l10.4,18l-20.8,0l10.4,-18z"/>
   </g>
   <g id="svg_63">
    <path id="svg_64" fill="#322659" d="m396,537l0.9,1.5l-1.8,0l0.9,-1.5z"/>
   </g>
   <g id="svg_65">
    <path id="svg_66" fill="#322659" d="m480,343l5.2,9l-10.4,0l5.2,-9z"/>
   </g>
   <g id="svg_67">
    <path id="svg_68" fill="#322659" d="m842,148l5.2,9l-10.4,0l5.2,-9z"/>
   </g>
   <g id="svg_69">
    <path id="svg_70" fill="#322659" d="m838,60l4.3,7.5l-8.6,0l4.3,-7.5z"/>
   </g>
   <g id="svg_71">
    <path id="svg_72" fill="#322659" d="m372,151l2.6,4.5l-5.2,0l2.6,-4.5z"/>
   </g>
   <g id="svg_73">
    <path id="svg_74" fill="#322659" d="m273,492l7.8,13.5l-15.6,0l7.8,-13.5z"/>
   </g>
   <g id="svg_75">
    <path id="svg_76" fill="#322659" d="m949,435l1.7,3l-3.4,0l1.7,-3z"/>
   </g>
   <g id="svg_77">
    <path id="svg_78" fill="#322659" d="m285,392l2.6,4.5l-5.2,0l2.6,-4.5z"/>
   </g>
   <g id="svg_79">
    <path id="svg_80" fill="#322659" d="m670,261l8.7,15l-17.4,0l8.7,-15z"/>
   </g>
   <g id="svg_81">
    <path id="svg_82" fill="#322659" d="m897,439l3.5,6l-7,0l3.5,-6z"/>
   </g>
   <g id="svg_83">
    <path id="svg_84" fill="#322659" d="m330,192l6.9,12l-13.8,0l6.9,-12z"/>
   </g>
   <g id="svg_85">
    <path id="svg_86" fill="#322659" d="m215,401l2.6,4.5l-5.2,0l2.6,-4.5z"/>
   </g>
   <g id="svg_87">
    <path id="svg_88" fill="#322659" d="m851,295l4.3,7.5l-8.6,0l4.3,-7.5z"/>
   </g>
   <g id="svg_89">
    <path id="svg_90" fill="#322659" d="m127,131l2.6,4.5l-5.2,0l2.6,-4.5z"/>
   </g>
   <g id="svg_91">
    <path id="svg_92" fill="#322659" d="m728,126l9.5,16.5l-19,0l9.5,-16.5z"/>
   </g>
   <g id="svg_93">
    <path id="svg_94" fill="#322659" d="m692,284l3.5,6l-7,0l3.5,-6z"/>
   </g>
   <g id="svg_95">
    <path id="svg_96" fill="#322659" d="m125,277l6.9,12l-13.8,0l6.9,-12z"/>
   </g>
   <g id="svg_97">
    <path id="svg_98" fill="#322659" d="m340,328l7.8,13.5l-15.6,0l7.8,-13.5z"/>
   </g>
   <g id="svg_99">
    <path id="svg_100" fill="#322659" d="m170,178l3.5,6l-7,0l3.5,-6z"/>
   </g>
   <g id="svg_101">
    <path id="svg_102" fill="#322659" d="m672,370l9.5,16.5l-19,0l9.5,-16.5z"/>
   </g>
   <g id="svg_103">
    <path id="svg_104" fill="#322659" d="m360,60l6.9,12l-13.8,0l6.9,-12z"/>
   </g>
   <g id="svg_105">
    <path id="svg_106" fill="#322659" d="m300,165l9.5,16.5l-19,0l9.5,-16.5z"/>
   </g>
   <g id="svg_107">
    <path id="svg_108" fill="#322659" d="m53,64l10.4,18l-20.8,0l10.4,-18z"/>
   </g>
   <g id="svg_109">
    <path id="svg_110" fill="#322659" d="m799,74l8.7,15l-17.4,0l8.7,-15z"/>
   </g>
   <g id="svg_111">
    <path id="svg_112" fill="#322659" d="m170,213l10.4,18l-20.8,0l10.4,-18z"/>
   </g>
   <g id="svg_113">
    <path id="svg_114" fill="#322659" d="m854,185l0.9,1.5l-1.8,0l0.9,-1.5z"/>
   </g>
   <g id="svg_115">
    <path id="svg_116" fill="#322659" d="m679,75l2.6,4.5l-5.2,0l2.6,-4.5z"/>
   </g>
   <g id="svg_117">
    <path id="svg_118" fill="#322659" d="m950,130l6.1,10.5l-12.2,0l6.1,-10.5z"/>
   </g>
   <g id="svg_119">
    <path id="svg_120" fill="#322659" d="m37,136l0.9,1.5l-1.8,0l0.9,-1.5z"/>
   </g>
   <g id="svg_121">
    <path id="svg_122" fill="#322659" d="m519,39l0.9,1.5l-1.8,0l0.9,-1.5z"/>
   </g>
   <g id="svg_123">
    <path id="svg_124" fill="#322659" d="m715,230l5.2,9l-10.4,0l5.2,-9z"/>
   </g>
   <g id="svg_125">
    <path id="svg_126" fill="#322659" d="m231,34l10.4,18l-20.8,0l10.4,-18z"/>
   </g>
   <g id="svg_127">
    <path id="svg_128" fill="#322659" d="m328,415l8.7,15l-17.4,0l8.7,-15z"/>
   </g>
   <g id="svg_129">
    <path id="svg_130" fill="#322659" d="m456,523l3.5,6l-7,0l3.5,-6z"/>
   </g>
   <g id="svg_131">
    <path id="svg_132" fill="#322659" d="m874,20l1.7,3l-3.4,0l1.7,-3z"/>
   </g>
   <g id="svg_133">
    <path id="svg_134" fill="#322659" d="m774,315l3.5,6l-7,0l3.5,-6z"/>
   </g>
   <g id="svg_135">
    <path id="svg_136" fill="#322659" d="m723,291l6.9,12l-13.8,0l6.9,-12z"/>
   </g>
   <g id="svg_137">
    <path id="svg_138" fill="#322659" d="m671,432l1.7,3l-3.4,0l1.7,-3z"/>
   </g>
   <g id="svg_139">
    <path id="svg_140" fill="#322659" d="m753,453l6.1,10.5l-12.2,0l6.1,-10.5z"/>
   </g>
   <g id="svg_141">
    <path id="svg_142" fill="#322659" d="m377,361l0.9,1.5l-1.8,0l0.9,-1.5z"/>
   </g>
   <g id="svg_143">
    <path id="svg_144" fill="#322659" d="m464,493l5.2,9l-10.4,0l5.2,-9z"/>
   </g>
   <g id="svg_145">
    <path id="svg_146" fill="#322659" d="m425,68l5.2,9l-10.4,0l5.2,-9z"/>
   </g>
   <g id="svg_147">
    <path id="svg_148" fill="#322659" d="m918,523l10.4,18l-20.8,0l10.4,-18z"/>
   </g>
   <g id="svg_149">
    <path id="svg_150" fill="#322659" d="m92,10l0.9,1.5l-1.8,0l0.9,-1.5z"/>
   </g>
   <g id="svg_151">
    <path id="svg_152" fill="#322659" d="m469,412l3.5,6l-7,0l3.5,-6z"/>
   </g>
   <g id="svg_153">
    <path id="svg_154" fill="#322659" d="m282,255l9.5,16.5l-19,0l9.5,-16.5z"/>
   </g>
   <g id="svg_155">
    <path id="svg_156" fill="#322659" d="m725,430l7.8,13.5l-15.6,0l7.8,-13.5z"/>
   </g>
   <g id="svg_157">
    <path id="svg_158" fill="#322659" d="m641,68l6.9,12l-13.8,0l6.9,-12z"/>
   </g>
   <g id="svg_159">
    <path id="svg_160" fill="#322659" d="m369,173l9.5,16.5l-19,0l9.5,-16.5z"/>
   </g>
   <g id="svg_161">
    <path id="svg_162" fill="#322659" d="m879,408l4.3,7.5l-8.6,0l4.3,-7.5z"/>
   </g>
   <g id="svg_163">
    <path id="svg_164" fill="#322659" d="m583,392l9.5,16.5l-19,0l9.5,-16.5z"/>
   </g>
   <g id="svg_165">
    <path id="svg_166" fill="#322659" d="m821,459l0.9,1.5l-1.8,0l0.9,-1.5z"/>
   </g>
   <g id="svg_167">
    <path id="svg_168" fill="#322659" d="m354,283l2.6,4.5l-5.2,0l2.6,-4.5z"/>
   </g>
   <g id="svg_169">
    <path id="svg_170" fill="#322659" d="m134,161l5.2,9l-10.4,0l5.2,-9z"/>
   </g>
   <g id="svg_171">
    <path id="svg_172" fill="#322659" d="m191,528l3.5,6l-7,0l3.5,-6z"/>
   </g>
   <g id="svg_173">
    <path id="svg_174" fill="#322659" d="m312,317l5.2,9l-10.4,0l5.2,-9z"/>
   </g>
   <g id="svg_175">
    <path id="svg_176" fill="#322659" d="m428,393l1.7,3l-3.4,0l1.7,-3z"/>
   </g>
   <g id="svg_177">
    <path id="svg_178" fill="#322659" d="m827,190l9.5,16.5l-19,0l9.5,-16.5z"/>
   </g>
   <g id="svg_179">
    <path id="svg_180" fill="#322659" d="m643,96l10.4,18l-20.8,0l10.4,-18z"/>
   </g>
   <g id="svg_181">
    <path id="svg_182" fill="#322659" d="m101,241l6.9,12l-13.8,0l6.9,-12z"/>
   </g>
   <g id="svg_183">
    <path id="svg_184" fill="#322659" d="m466,366l6.1,10.5l-12.2,0l6.1,-10.5z"/>
   </g>
   <g id="svg_185">
    <path id="svg_186" fill="#322659" d="m940,244l6.1,10.5l-12.2,0l6.1,-10.5z"/>
   </g>
   <g id="svg_187">
    <path id="svg_188" fill="#322659" d="m399,243l8.7,15l-17.4,0l8.7,-15z"/>
   </g>
   <g id="svg_189">
    <path id="svg_190" fill="#322659" d="m914,385l7.8,13.5l-15.6,0l7.8,-13.5z"/>
   </g>
   <g id="svg_191">
    <path id="svg_192" fill="#322659" d="m751,103l8.7,15l-17.4,0l8.7,-15z"/>
   </g>
   <g id="svg_193">
    <path id="svg_194" fill="#322659" d="m607,482l10.4,18l-20.8,0l10.4,-18z"/>
   </g>
  </g>
  <text font-weight="bold" xml:space="preserve" text-anchor="start" font-family="'Inter'" font-size="200" id="svg_195" y="343" x="129.21875" stroke-width="0" stroke="#000" fill="#6b46c1">Angelin</text>
 </g>
</svg>