<svg xmlns="http://www.w3.org/2000/svg" xmlns:xlink="http://www.w3.org/1999/xlink" version="1.1" viewBox="0 0 1000 1000" xml:space="preserve">
<g transform="matrix(6.564 0 0 6.564 500.0013 488.0013)">
<g vector-effect="non-scaling-stroke">
		<g transform="matrix(1 0 0 1 2.4869 -21.2154)">
<path style="stroke: rgb(50,38,89); stroke-width: 1; stroke-dasharray: none; stroke-linecap: butt; stroke-dashoffset: 0; stroke-linejoin: miter; stroke-miterlimit: 4; is-custom-font: none; font-file-url: none; fill: rgb(107,70,193); fill-rule: nonzero; opacity: 1;" transform=" translate(-73.4868, -49.7846)" d="M 123.272 15.0053 C 100.618 -5.00178 66.6084 -5.00178 43.9544 15.0053 C 19.1539 36.9083 16.8049 74.7687 38.7079 99.5692 L 123.272 15.0053 Z" stroke-linecap="round"/>
</g>
		<g transform="matrix(1 0 0 1 -1.4495 22.2207)">
<path style="stroke: rgb(50,38,89); stroke-width: 1; stroke-dasharray: none; stroke-linecap: butt; stroke-dashoffset: 0; stroke-linejoin: miter; stroke-miterlimit: 4; is-custom-font: none; font-file-url: none; fill: rgb(107,70,193); fill-rule: nonzero; opacity: 1;" transform=" translate(-69.5505, -93.2207)" d="M 19.7282 127.735 C 30.6781 137.602 44.9068 143.043 59.6462 143 C 75.5276 143.033 90.7676 136.737 101.996 125.506 C 124.276 103.024 125.252 67.0991 104.225 43.4412 L 19.7282 127.735 Z" stroke-linecap="round"/>
</g>
</g>
</g>
</svg>
