<svg id="visual" viewBox="0 0 200 4000" xmlns="http://www.w3.org/2000/svg" xmlns:xlink="http://www.w3.org/1999/xlink" version="1.1"><g><g transform="translate(100 3100)"><path d="M0 -26.4L22.9 13.2L-22.9 13.2Z" fill="#322659"></path></g><g transform="translate(54 1257)"><path d="M0 -23L19.9 11.5L-19.9 11.5Z" fill="#322659"></path></g><g transform="translate(37 1040)"><path d="M0 -4L3.5 2L-3.5 2Z" fill="#322659"></path></g><g transform="translate(112 89)"><path d="M0 -21L18.2 10.5L-18.2 10.5Z" fill="#322659"></path></g><g transform="translate(152 3715)"><path d="M0 -20L17.3 10L-17.3 10Z" fill="#322659"></path></g><g transform="translate(59 3455)"><path d="M0 -6L5.2 3L-5.2 3Z" fill="#322659"></path></g><g transform="translate(117 1679)"><path d="M0 -20L17.3 10L-17.3 10Z" fill="#322659"></path></g><g transform="translate(54 419)"><path d="M0 -13L11.3 6.5L-11.3 6.5Z" fill="#322659"></path></g><g transform="translate(107 382)"><path d="M0 -13L11.3 6.5L-11.3 6.5Z" fill="#322659"></path></g><g transform="translate(125 898)"><path d="M0 -16L13.9 8L-13.9 8Z" fill="#322659"></path></g><g transform="translate(27 1609)"><path d="M0 -17L14.7 8.5L-14.7 8.5Z" fill="#322659"></path></g><g transform="translate(154 3049)"><path d="M0 -11L9.5 5.5L-9.5 5.5Z" fill="#322659"></path></g><g transform="translate(130 3223)"><path d="M0 -18L15.6 9L-15.6 9Z" fill="#322659"></path></g><g transform="translate(145 2035)"><path d="M0 -6L5.2 3L-5.2 3Z" fill="#322659"></path></g><g transform="translate(136 2352)"><path d="M0 -19L16.5 9.5L-16.5 9.5Z" fill="#322659"></path></g><g transform="translate(153 3110)"><path d="M0 -18L15.6 9L-15.6 9Z" fill="#322659"></path></g></g></svg>
