<svg id="visual" viewBox="0 0 200 4000" xmlns="http://www.w3.org/2000/svg" xmlns:xlink="http://www.w3.org/1999/xlink" version="1.1"><g><g transform="translate(43 470)"><path d="M0 -26.4L22.9 13.2L-22.9 13.2Z" fill="#322659"></path></g><g transform="translate(56 3430)"><path d="M0 -19L16.5 9.5L-16.5 9.5Z" fill="#322659"></path></g><g transform="translate(42 1434)"><path d="M0 -23L19.9 11.5L-19.9 11.5Z" fill="#322659"></path></g><g transform="translate(127 1426)"><path d="M0 -18L15.6 9L-15.6 9Z" fill="#322659"></path></g><g transform="translate(119 1913)"><path d="M0 -11L9.5 5.5L-9.5 5.5Z" fill="#322659"></path></g><g transform="translate(102 1604)"><path d="M0 -21L18.2 10.5L-18.2 10.5Z" fill="#322659"></path></g><g transform="translate(66 598)"><path d="M0 -13L11.3 6.5L-11.3 6.5Z" fill="#322659"></path></g><g transform="translate(40 1179)"><path d="M0 -5L4.3 2.5L-4.3 2.5Z" fill="#322659"></path></g><g transform="translate(70 2168)"><path d="M0 -23L19.9 11.5L-19.9 11.5Z" fill="#322659"></path></g><g transform="translate(27 3152)"><path d="M0 -7L6.1 3.5L-6.1 3.5Z" fill="#322659"></path></g><g transform="translate(138 797)"><path d="M0 -12L10.4 6L-10.4 6Z" fill="#322659"></path></g><g transform="translate(169 2765)"><path d="M0 -24L20.8 12L-20.8 12Z" fill="#322659"></path></g><g transform="translate(147 3138)"><path d="M0 -18L15.6 9L-15.6 9Z" fill="#322659"></path></g><g transform="translate(41 1916)"><path d="M0 -3L2.6 1.5L-2.6 1.5Z" fill="#322659"></path></g><g transform="translate(84 1149)"><path d="M0 -9L7.8 4.5L-7.8 4.5Z" fill="#322659"></path></g></g></svg>
