<svg id="visual" viewBox="0 0 200 4000" width="200" height="4000" xmlns="http://www.w3.org/2000/svg" xmlns:xlink="http://www.w3.org/1999/xlink" version="1.1"><g><g transform="translate(125 110)"><path d="M0 -26.4L22.9 13.2L-22.9 13.2Z" fill="#322659"></path></g><g transform="translate(139 837)"><path d="M0 -14L12.1 7L-12.1 7Z" fill="#322659"></path></g><g transform="translate(92 2381)"><path d="M0 -23L19.9 11.5L-19.9 11.5Z" fill="#322659"></path></g><g transform="translate(75 1447)"><path d="M0 -24L20.8 12L-20.8 12Z" fill="#322659"></path></g><g transform="translate(127 670)"><path d="M0 -19L16.5 9.5L-16.5 9.5Z" fill="#322659"></path></g><g transform="translate(76 2234)"><path d="M0 -13L11.3 6.5L-11.3 6.5Z" fill="#322659"></path></g><g transform="translate(111 1291)"><path d="M0 -5L4.3 2.5L-4.3 2.5Z" fill="#322659"></path></g><g transform="translate(90 3820)"><path d="M0 -21L18.2 10.5L-18.2 10.5Z" fill="#322659"></path></g><g transform="translate(163 2394)"><path d="M0 -11L9.5 5.5L-9.5 5.5Z" fill="#322659"></path></g><g transform="translate(101 2994)"><path d="M0 -24L20.8 12L-20.8 12Z" fill="#322659"></path></g><g transform="translate(64 1900)"><path d="M0 -11L9.5 5.5L-9.5 5.5Z" fill="#322659"></path></g><g transform="translate(67 2727)"><path d="M0 -3L2.6 1.5L-2.6 1.5Z" fill="#322659"></path></g><g transform="translate(74 209)"><path d="M0 -9L7.8 4.5L-7.8 4.5Z" fill="#322659"></path></g><g transform="translate(110 3149)"><path d="M0 -16L13.9 8L-13.9 8Z" fill="#322659"></path></g><g transform="translate(165 1443)"><path d="M0 -13L11.3 6.5L-11.3 6.5Z" fill="#322659"></path></g><g transform="translate(74 2574)"><path d="M0 -6L5.2 3L-5.2 3Z" fill="#322659"></path></g></g></svg>