<svg id="visual" viewBox="0 0 200 4000" width="200" height="4000" xmlns="http://www.w3.org/2000/svg" xmlns:xlink="http://www.w3.org/1999/xlink" version="1.1"><g><g transform="translate(122 2277)"><path d="M0 -26.4L22.9 13.2L-22.9 13.2Z" fill="#322659"></path></g><g transform="translate(170 1558)"><path d="M0 -10L8.7 5L-8.7 5Z" fill="#322659"></path></g><g transform="translate(90 1284)"><path d="M0 -17L14.7 8.5L-14.7 8.5Z" fill="#322659"></path></g><g transform="translate(62 591)"><path d="M0 -4L3.5 2L-3.5 2Z" fill="#322659"></path></g><g transform="translate(166 3617)"><path d="M0 -4L3.5 2L-3.5 2Z" fill="#322659"></path></g><g transform="translate(90 198)"><path d="M0 -8L6.9 4L-6.9 4Z" fill="#322659"></path></g><g transform="translate(30 1413)"><path d="M0 -22L19.1 11L-19.1 11Z" fill="#322659"></path></g><g transform="translate(147 1751)"><path d="M0 -20L17.3 10L-17.3 10Z" fill="#322659"></path></g><g transform="translate(54 66)"><path d="M0 -20L17.3 10L-17.3 10Z" fill="#322659"></path></g><g transform="translate(34 1691)"><path d="M0 -25L21.7 12.5L-21.7 12.5Z" fill="#322659"></path></g><g transform="translate(62 770)"><path d="M0 -14L12.1 7L-12.1 7Z" fill="#322659"></path></g><g transform="translate(99 3242)"><path d="M0 -6L5.2 3L-5.2 3Z" fill="#322659"></path></g><g transform="translate(75 344)"><path d="M0 -22L19.1 11L-19.1 11Z" fill="#322659"></path></g><g transform="translate(48 2734)"><path d="M0 -25L21.7 12.5L-21.7 12.5Z" fill="#322659"></path></g><g transform="translate(171 2229)"><path d="M0 -12L10.4 6L-10.4 6Z" fill="#322659"></path></g><g transform="translate(163 3441)"><path d="M0 -13L11.3 6.5L-11.3 6.5Z" fill="#322659"></path></g></g></svg>